<?xml version="1.0" standalone="no"?>
<!DOCTYPE svg PUBLIC "-//W3C//DTD SVG 20010904//EN"
 "http://www.w3.org/TR/2001/REC-SVG-20010904/DTD/svg10.dtd">
<svg version="1.0" xmlns="http://www.w3.org/2000/svg"
 width="471.000000pt" height="472.000000pt" viewBox="0 0 471.000000 472.000000"
 preserveAspectRatio="xMidYMid meet">

<g transform="translate(0.000000,472.000000) scale(0.100000,-0.100000)"
fill="#000000" stroke="none">
<path d="M0 2360 l0 -2360 2355 0 2355 0 0 2360 0 2360 -2355 0 -2355 0 0
-2360z m2531 2319 c711 -55 1366 -441 1763 -1039 265 -398 400 -883 383 -1370
-13 -358 -96 -678 -256 -985 -113 -217 -237 -383 -425 -571 -207 -206 -389
-337 -644 -461 -728 -354 -1591 -295 -2277 154 -357 235 -651 570 -832 949
-72 152 -107 252 -153 429 -108 426 -92 887 47 1305 243 735 849 1310 1598
1515 262 72 521 96 796 74z"/>
<path d="M602 3340 c-55 -34 -82 -137 -67 -255 10 -81 44 -116 145 -150 l79
-26 20 -54 c11 -29 65 -215 120 -412 55 -197 160 -577 235 -844 74 -267 144
-510 155 -540 25 -65 77 -119 146 -151 46 -21 64 -23 220 -23 196 0 248 12
310 72 66 64 67 68 301 963 35 134 65 249 67 254 2 5 18 -49 36 -120 19 -71
58 -217 88 -324 206 -742 197 -718 273 -783 23 -19 62 -41 88 -48 64 -19 352
-19 407 0 92 31 149 94 181 199 8 26 59 209 114 407 54 198 135 493 180 655
45 162 106 385 136 494 30 110 61 211 69 227 14 26 41 40 136 69 37 11 68 38
88 77 19 37 14 211 -8 259 -33 73 -37 74 -458 74 -351 0 -369 -1 -401 -20 -48
-30 -65 -78 -66 -190 0 -142 25 -179 144 -210 40 -10 74 -20 76 -23 3 -2 -63
-273 -146 -601 -82 -328 -150 -606 -150 -618 0 -52 -21 12 -84 252 -36 140
-106 404 -155 585 -49 182 -91 344 -95 362 -7 31 -7 31 49 44 107 24 135 67
135 211 0 72 -4 101 -20 134 -37 75 -29 74 -524 74 -495 0 -490 1 -527 -72
-18 -35 -22 -59 -21 -139 1 -143 31 -188 143 -210 32 -6 59 -17 59 -23 0 -15
-19 -86 -140 -546 -56 -212 -118 -448 -137 -525 -19 -77 -37 -147 -40 -155 -3
-8 -18 39 -33 105 -15 66 -84 341 -154 611 -69 270 -126 497 -126 506 0 10 14
18 42 22 70 11 125 41 144 78 22 42 30 177 15 236 -7 23 -25 57 -41 75 l-28
32 -474 3 c-461 2 -474 2 -506 -18z"/>
</g>
</svg>
